<svg xmlns="http://www.w3.org/2000/svg" viewBox="0 0 1000 1000" width="100%" height="auto">
<path fill="white" d="M500 800 A 1793 1793 0 0 0 400 900 A 1793 1793 0 0 0 500 1000 A 1793 1793 0 0 0 600 900 A 1793 1793 0 0 0 500 800"/>
<path fill="white" d="M600 900 A 1793 1793 0 0 0 1000 200 L891 145 A 1673 1673 0 0 1 643 657 A 943 943 0 0 1 707 54 L600 0 A 1063 1063 0 0 0 600 900"/>
<path fill="white" d="M400 900 A 1793 1793 0 0 1 0 200 L109 145 A 1673 1673 0 0 0 356 657 A 943 943 0 0 0 293 54 L400 0 A 1063 1063 0 0 1 400 900"/>
</svg>